# xmcd
#
# Track frame offsets:
#	150
#	21217
#	42211
#	73081
#	89685
#	107915
#	127880
#	147603
#	180364
#	186926
#	202545
#	220215
#	251023
#	288590
#	316102
#
# Disc length: 4466 seconds
# Revision: 0
# Processed by: cddbd v1.5.2PL0 Copyright (c) Steve Scherf et al.
# Submitted via: dBpowerAMP V12.0
#
DISCID=dd11700f
DTITLE=Greensky Bluegrass - All Access: Vol. 2, Disc 2
DYEAR=2010
DGENRE=Country
TTITLE0=Grow Bananas
TTITLE1=Roberta
TTITLE2=Last Winter in the Copper Country
TTITLE3=Jesus on the Mainline
TTITLE4=I'd Probably Kill You
TTITLE5=How Far I'd Fall for You
TTITLE6=Doin' My Time
TTITLE7=Jam 2
TTITLE8=Doin My Time (Reprise)
TTITLE9=Radio Blues
TTITLE10=Tuesday Letter
TTITLE11=China Cat Sunflower
TTITLE12=I Know You Rider
TTITLE13=No Idea
TTITLE14=Shuckin' the Corn
EXTD=
EXTT0=
EXTT1=
EXTT2=
EXTT3=
EXTT4=
EXTT5=
EXTT6=
EXTT7=
EXTT8=
EXTT9=
EXTT10=
EXTT11=
EXTT12=
EXTT13=
EXTT14=
PLAYORDER=
